<svg width="860" height="352" xmlns="http://www.w3.org/2000/svg" xmlns:xlink="http://www.w3.org/1999/xlink" xml:space="preserve" overflow="hidden"><g transform="translate(-192 -336)"><g><g><g><g><path d="M73.3333 51.3333 51.3333 51.3333 51.3333 300.667 300.667 300.667 300.667 278.667 73.3333 278.667 73.3333 51.3333Z" fill="#000000" fill-rule="nonzero" fill-opacity="1" transform="matrix(2.44034 0 0 1 192 336)"/><path d="M297.935 229.816C285.149 230.27 251.035 231.488 244.035 162.173 238.333 105.472 223.703 81.279 195.177 81.279 166.65 81.279 152.038 105.472 146.3 162.173 139.333 231.488 105.233 230.23 92.4183 229.816 91.3513 229.775 90.4347 229.746 89.6867 229.746L89.6867 251.746C90.2183 251.746 90.8747 251.772 91.6373 251.801 92.7887 251.841 93.9253 251.86 95.0547 251.86 137.735 251.86 162.342 222.449 168.205 164.384 174.372 103.279 189.471 103.279 195.177 103.279 200.882 103.279 215.981 103.279 222.149 164.384 228.169 223.986 253.887 253.26 298.72 251.801 299.479 251.772 300.131 251.746 300.667 251.746L300.667 229.746C299.933 229.746 299.002 229.775 297.935 229.816Z" fill="#000000" fill-rule="nonzero" fill-opacity="1" transform="matrix(2.44034 0 0 1 192 336)"/><path d="M191.51 158.279 198.843 158.279 198.843 176.612 191.51 176.612Z" fill="#000000" fill-rule="nonzero" fill-opacity="1" transform="matrix(2.44034 0 0 1 192 336)"/><path d="M191.51 191.279 198.843 191.279 198.843 209.612 191.51 209.612Z" fill="#000000" fill-rule="nonzero" fill-opacity="1" transform="matrix(2.44034 0 0 1 192 336)"/><path d="M191.51 126.504 198.843 126.504 198.843 144.837 191.51 144.837Z" fill="#000000" fill-rule="nonzero" fill-opacity="1" transform="matrix(2.44034 0 0 1 192 336)"/><path d="M191.51 224.279 198.843 224.279 198.843 242 191.51 242Z" fill="#000000" fill-rule="nonzero" fill-opacity="1" transform="matrix(2.44034 0 0 1 192 336)"/></g></g></g></g></g></svg>